<?xml version="1.0" encoding="UTF-8"?>
<svg width="82px" height="82px" viewBox="0 0 82 82" version="1.1" xmlns="http://www.w3.org/2000/svg" xmlns:xlink="http://www.w3.org/1999/xlink">
    <!-- Generator: Sketch 52.5 (67469) - http://www.bohemiancoding.com/sketch -->
    <title>playlist_add-24px</title>
    <desc>Created with Sketch.</desc>
    <g id="playlist_add-24px" stroke="none" stroke-width="1" fill="none" fill-rule="evenodd">
        <g>
            <polygon id="Path" points="0 0 82 0 82 82 0 82"></polygon>
            <path d="M49.4,34 L8,34 L8,41 L49.4,41 L49.4,34 Z M49.4,20 L8,20 L8,27 L49.4,27 L49.4,20 Z M63.2,48 L63.2,34 L56.3,34 L56.3,48 L42.5,48 L42.5,55 L56.3,55 L56.3,69 L63.2,69 L63.2,55 L77,55 L77,48 L63.2,48 Z M8,55 L35.6,55 L35.6,48 L8,48 L8,55 Z" id="Shape" fill="#FF9D00" fill-rule="nonzero"></path>
        </g>
    </g>
</svg>