<?xml version="1.0" encoding="UTF-8"?>
<svg width="24px" height="24px" viewBox="0 0 31 31" version="1.1" xmlns="http://www.w3.org/2000/svg" xmlns:xlink="http://www.w3.org/1999/xlink">
    <!-- Generator: Sketch 52.2 (67145) - http://www.bohemiancoding.com/sketch -->
    <title>baseline-play_circle_outline-24px</title>
    <desc>Created with Sketch.</desc>
    <g id="Page-1" stroke="none" stroke-width="1" fill="none" fill-rule="evenodd">
        <g id="GUI" transform="translate(-188.000000, -40.000000)">
            <g id="baseline-play_circle_outline-24px" transform="translate(186.000000, 38.000000)">
                <circle id="Oval" fill="none" cx="17.5" cy="17.5" r="12.4570833"></circle>
                <polygon id="Path" points="0 0 35 0 35 35 0 35"></polygon>
                <path d="M14.5833333,24.0625 L23.3333333,17.5 L14.5833333,10.9375 L14.5833333,24.0625 Z M17.5,2.91666667 C9.45,2.91666667 2.91666667,9.45 2.91666667,17.5 C2.91666667,25.55 9.45,32.0833333 17.5,32.0833333 C25.55,32.0833333 32.0833333,25.55 32.0833333,17.5 C32.0833333,9.45 25.55,2.91666667 17.5,2.91666667 Z M17.5,29.1666667 C11.06875,29.1666667 5.83333333,23.93125 5.83333333,17.5 C5.83333333,11.06875 11.06875,5.83333333 17.5,5.83333333 C23.93125,5.83333333 29.1666667,11.06875 29.1666667,17.5 C29.1666667,23.93125 23.93125,29.1666667 17.5,29.1666667 Z" id="Shape" fill="#D0021B" fill-rule="nonzero"></path>
            </g>
        </g>
    </g>
</svg>