<?xml version="1.0" encoding="UTF-8"?>
<svg width="23px" height="23px" viewBox="0 0 29 29" version="1.1" xmlns="http://www.w3.org/2000/svg" xmlns:xlink="http://www.w3.org/1999/xlink">
    <!-- Generator: Sketch 52.2 (67145) - http://www.bohemiancoding.com/sketch -->
    <title>baseline-settings-20px</title>
    <desc>Created with Sketch.</desc>
    <g id="Page-1" stroke="none" stroke-width="1" fill="none" fill-rule="evenodd">
        <g id="GUI" transform="translate(-373.000000, -41.000000)">
            <g id="baseline-settings-20px" transform="translate(370.000000, 38.000000)">
                <polygon id="Path" points="0 0 35 0 35 35 0 35"></polygon>
                <path d="M27.9125,18.865 C27.965,18.4275 28,17.9725 28,17.5 C28,17.0275 27.965,16.5725 27.895,16.135 L30.8525,13.825 C31.115,13.615 31.185,13.23 31.0275,12.9325 L28.2275,8.085 C28.0525,7.77 27.685,7.665 27.37,7.77 L23.8875,9.17 C23.1525,8.61 22.3825,8.155 21.525,7.805 L21,4.095 C20.9475,3.745 20.65,3.5 20.3,3.5 L14.7,3.5 C14.35,3.5 14.07,3.745 14.0175,4.095 L13.4925,7.805 C12.635,8.155 11.8475,8.6275 11.13,9.17 L7.6475,7.77 C7.3325,7.6475 6.965,7.77 6.79,8.085 L3.99,12.9325 C3.815,13.2475 3.885,13.615 4.165,13.825 L7.1225,16.135 C7.0525,16.5725 7,17.045 7,17.5 C7,17.955 7.035,18.4275 7.105,18.865 L4.1475,21.175 C3.885,21.385 3.815,21.77 3.9725,22.0675 L6.7725,26.915 C6.9475,27.23 7.315,27.335 7.63,27.23 L11.1125,25.83 C11.8475,26.39 12.6175,26.845 13.475,27.195 L14,30.905 C14.07,31.255 14.35,31.5 14.7,31.5 L20.3,31.5 C20.65,31.5 20.9475,31.255 20.9825,30.905 L21.5075,27.195 C22.365,26.845 23.1525,26.3725 23.87,25.83 L27.3525,27.23 C27.6675,27.3525 28.035,27.23 28.21,26.915 L31.01,22.0675 C31.185,21.7525 31.115,21.385 30.835,21.175 L27.9125,18.865 Z M17.5,22.75 C14.6125,22.75 12.25,20.3875 12.25,17.5 C12.25,14.6125 14.6125,12.25 17.5,12.25 C20.3875,12.25 22.75,14.6125 22.75,17.5 C22.75,20.3875 20.3875,22.75 17.5,22.75 Z" id="Shape" fill="#D0021B" fill-rule="nonzero"></path>
            </g>
        </g>
    </g>
</svg>