<?xml version="1.0" encoding="UTF-8"?>
<svg width="26px" height="26px" viewBox="0 0 26 26" version="1.1" xmlns="http://www.w3.org/2000/svg" xmlns:xlink="http://www.w3.org/1999/xlink">
    <!-- Generator: Sketch 52.5 (67469) - http://www.bohemiancoding.com/sketch -->
    <title>del</title>
    <desc>Created with Sketch.</desc>
    <symbol id="del" viewBox="0 0 26 26" width="26px" height="26px">
        <g>
            <path d="M16.25,17.3333333 L20.5833333,17.3333333 L20.5833333,19.5 L16.25,19.5 L16.25,17.3333333 Z M16.25,8.66666667 L23.8333333,8.66666667 L23.8333333,10.8333333 L16.25,10.8333333 L16.25,8.66666667 Z M16.25,13 L22.75,13 L22.75,15.1666667 L16.25,15.1666667 L16.25,13 Z M3.25,19.5 C3.25,20.6916667 4.225,21.6666667 5.41666667,21.6666667 L11.9166667,21.6666667 C13.1083333,21.6666667 14.0833333,20.6916667 14.0833333,19.5 L14.0833333,8.66666667 L3.25,8.66666667 L3.25,19.5 Z M15.1666667,5.41666667 L11.9166667,5.41666667 L10.8333333,4.33333333 L6.5,4.33333333 L5.41666667,5.41666667 L2.16666667,5.41666667 L2.16666667,7.58333333 L15.1666667,7.58333333 L15.1666667,5.41666667 Z"></path>
        </g>
    </symbol>
</svg>