<?xml version="1.0" encoding="UTF-8"?>
<svg width="469px" height="348px" viewBox="0 0 469 348" version="1.1" xmlns="http://www.w3.org/2000/svg" xmlns:xlink="http://www.w3.org/1999/xlink">
    <!-- Generator: Sketch 52.5 (67469) - http://www.bohemiancoding.com/sketch -->
    <title>drop</title>
    <desc>Created with Sketch.</desc>
    <defs>
        <rect id="path-1" x="10" y="10" width="449" height="328" rx="20"></rect>
        <mask id="mask-2" maskContentUnits="userSpaceOnUse" maskUnits="objectBoundingBox" x="0" y="0" width="449" height="328" fill="white">
            <use xlink:href="#path-1"></use>
        </mask>
    </defs>
    <g id="Page-1" stroke="none" stroke-width="1" fill="none" fill-rule="evenodd">
        <g id="GUI">
            <g id="drop">
                <rect id="Rectangle" fill-opacity="0.848703578" fill="#FFFFFF" x="0" y="0" width="469" height="348"></rect>
                <use id="Rectangle" stroke="#FF9D00" mask="url(#mask-2)" stroke-width="8" stroke-linecap="square" stroke-dasharray="4,19" xlink:href="#path-1"></use>
                <g id="playlist_add-24px" transform="translate(194.000000, 133.000000)">
                    <polygon id="Path" points="0 0 82 0 82 82 0 82"></polygon>
                    <path d="M49.4,34 L8,34 L8,41 L49.4,41 L49.4,34 Z M49.4,20 L8,20 L8,27 L49.4,27 L49.4,20 Z M63.2,48 L63.2,34 L56.3,34 L56.3,48 L42.5,48 L42.5,55 L56.3,55 L56.3,69 L63.2,69 L63.2,55 L77,55 L77,48 L63.2,48 Z M8,55 L35.6,55 L35.6,48 L8,48 L8,55 Z" id="Shape" fill="#FF9D00" fill-rule="nonzero"></path>
                </g>
            </g>
        </g>
    </g>
</svg>