<?xml version="1.0" encoding="UTF-8"?>
<svg width="469px" height="348px" viewBox="0 0 469 348" version="1.1" xmlns="http://www.w3.org/2000/svg" xmlns:xlink="http://www.w3.org/1999/xlink">
    <!-- Generator: Sketch 52.5 (67469) - http://www.bohemiancoding.com/sketch -->
    <title>drop</title>
    <desc>Created with Sketch.</desc>
    <defs>
        <rect id="path-1" x="10" y="10" width="449" height="328" rx="10"></rect>
        <mask id="mask-2" maskContentUnits="userSpaceOnUse" maskUnits="objectBoundingBox" x="0" y="0" width="449" height="328" fill="white">
            <use xlink:href="#path-1"></use>
        </mask>
    </defs>
    <g id="Page-1" stroke="none" stroke-width="1" fill="none" fill-rule="evenodd">
        <g id="GUI">
            <g id="drop">
                <rect id="Rectangle" fill-opacity="0.80188519" fill="#FFFFFF" x="0" y="0" width="469" height="348"></rect>
                <g id="baseline-attach_file-24px" transform="translate(182.000000, 121.000000)">
                    <path d="M73.3181818,27.0454545 L73.3181818,77.75 C73.3181818,87.4940909 65.3445455,95.3863636 55.5,95.3863636 C45.6554545,95.3863636 37.6818182,87.4940909 37.6818182,77.75 L37.6818182,22.6363636 C37.6818182,16.5518182 42.6709091,11.6136364 48.8181818,11.6136364 C54.9654545,11.6136364 59.9545455,16.5518182 59.9545455,22.6363636 L59.9545455,68.9318182 C59.9545455,71.3568182 57.95,73.3409091 55.5,73.3409091 C53.05,73.3409091 51.0454545,71.3568182 51.0454545,68.9318182 L51.0454545,27.0454545 L44.3636364,27.0454545 L44.3636364,68.9318182 C44.3636364,75.0163636 49.3527273,79.9545455 55.5,79.9545455 C61.6472727,79.9545455 66.6363636,75.0163636 66.6363636,68.9318182 L66.6363636,22.6363636 C66.6363636,12.8922727 58.6627273,5 48.8181818,5 C38.9736364,5 31,12.8922727 31,22.6363636 L31,77.75 C31,91.1536364 41.9581818,102 55.5,102 C69.0418182,102 80,91.1536364 80,77.75 L80,27.0454545 L73.3181818,27.0454545 Z" id="Path" fill="#F32038"></path>
                    <polygon id="Path" points="0 0 106 0 106 106 0 106"></polygon>
                </g>
                <use id="Rectangle" stroke="#F32038" mask="url(#mask-2)" stroke-width="8" stroke-dasharray="10" xlink:href="#path-1"></use>
            </g>
        </g>
    </g>
</svg>