<svg xmlns="http://www.w3.org/2000/svg" height="24" viewBox="0 0 24 24" width="24">
  <path id="del" d="M15 16h4v2h-4zm0-8h7v2h-7zm0 4h6v2h-6zM3 18c0 1.1.9 2 2 2h6c1.1 0 2-.9 2-2V8H3v10zM14 5h-3l-1-1H6L5 5H2v2h12z" />
  <path id="format" d="M6 7h2.5L5 3.5 1.5 7H4v10H1.5L5 20.5 8.5 17H6V7zm4-2v2h12V5H10zm0 14h12v-2H10v2zm0-6h12v-2H10v2z" />
  <polygon id="fullscreen" points="21,11 21,3 13,3 16.29,6.29 6.29,16.29 3,13 3,21 11,21 7.71,17.71 17.71,7.71" />
  <path id="close_fullscreen" d="M22,3.41l-5.29,5.29L20,12h-8V4l3.29,3.29L20.59,2L22,3.41z M3.41,22l5.29-5.29L12,20v-8H4l3.29,3.29L2,20.59L3.41,22z" />
</svg>